{
	"asset":{
		"version":"2.0",
		"generator":"Created using the official Cinema 4D glTF Exporter 1.000x284978"
	},
	"scenes":[{
		"nodes":[0]
	}],
	"nodes":[{
		"name":"平刃有檔-三角柄_body1",
		"translation":[0.0,
		0.0,
		0.0],
		"rotation":[0.0,
		0.0,
		0.0,
		-1.0],
		"scale":[1.0,
		1.0,
		1.0],
		"children":[1,
		2]
	},
	{
		"name":"平刃有檔-三角柄_body1-材质",
		"translation":[0.0,
		0.0,
		0.0],
		"rotation":[0.0,
		0.0,
		0.0,
		-1.0],
		"scale":[1.0,
		1.0,
		1.0],
		"mesh":0
	},
	{
		"name":"平刃有檔-三角柄_body1-螺絲2",
		"translation":[0.0,
		0.0,
		0.0],
		"rotation":[0.0,
		0.0,
		0.0,
		-1.0],
		"scale":[1.0,
		1.0,
		1.0],
		"mesh":1
	}],
	"meshes":[{
		"name":"平刃有檔-三角柄_body1-材质",
		"primitives":[{
			"attributes":{
				"POSITION":1,
				"NORMAL":2,
				"TEXCOORD_0":3
			},
			"indices":0,
			"material":0
		}]
	},
	{
		"name":"平刃有檔-三角柄_body1-螺絲2",
		"primitives":[{
			"attributes":{
				"POSITION":5,
				"NORMAL":6,
				"TEXCOORD_0":7
			},
			"indices":4,
			"material":1
		}]
	}],
	"accessors":[{
		"bufferView":0,
		"type":"SCALAR",
		"min":[0],
		"componentType":5123,
		"count":1713,
		"byteOffset":0,
		"max":[582]
	},
	{
		"bufferView":1,
		"type":"VEC3",
		"min":[-1.6399999856948853,
		4.420000076293945,
		-1.6399999856948853],
		"componentType":5126,
		"count":583,
		"byteOffset":0,
		"max":[1.6399999856948853,
		5.420000076293945,
		1.6399999856948853]
	},
	{
		"bufferView":1,
		"type":"VEC3",
		"min":[-1.0,
		-1.0,
		-1.0],
		"componentType":5126,
		"count":583,
		"byteOffset":12,
		"max":[1.0,
		1.0,
		1.0]
	},
	{
		"bufferView":1,
		"type":"VEC2",
		"min":[-8.465450562766819e-15,
		-7.785149261363422e-12],
		"componentType":5126,
		"count":583,
		"byteOffset":24,
		"max":[1.0,
		1.0]
	},
	{
		"bufferView":2,
		"type":"SCALAR",
		"min":[0],
		"componentType":5123,
		"count":3891,
		"byteOffset":0,
		"max":[1594]
	},
	{
		"bufferView":3,
		"type":"VEC3",
		"min":[-1.5775511264801026,
		0.0,
		-1.5593252182006837],
		"componentType":5126,
		"count":1595,
		"byteOffset":0,
		"max":[1.5775511264801026,
		7.079155921936035,
		1.5593252182006837]
	},
	{
		"bufferView":3,
		"type":"VEC3",
		"min":[-1.0,
		-1.0,
		-1.0],
		"componentType":5126,
		"count":1595,
		"byteOffset":12,
		"max":[1.0,
		1.0,
		1.0]
	},
	{
		"bufferView":3,
		"type":"VEC2",
		"min":[0.024946756660938264,
		0.007459872402250767],
		"componentType":5126,
		"count":1595,
		"byteOffset":24,
		"max":[0.9714310765266419,
		0.9940850734710693]
	}],
	"bufferViews":[{
		"buffer":0,
		"byteOffset":0,
		"byteLength":3426,
		"target":34963
	},
	{
		"buffer":0,
		"byteOffset":3428,
		"byteLength":18656,
		"byteStride":32,
		"target":34962
	},
	{
		"buffer":1,
		"byteOffset":0,
		"byteLength":7782,
		"target":34963
	},
	{
		"buffer":1,
		"byteOffset":7784,
		"byteLength":51040,
		"byteStride":32,
		"target":34962
	}],
	"buffers":[{
		"uri":"data:application/octet-stream;base64,",
		"byteLength":22084
	},
	{
		"uri":"data:application/octet-stream;base64,",
		"byteLength":58824
	}],
	"materials":[{
		"pbrMetallicRoughness":{
			"baseColorFactor":[0.8,
			0.8,
			0.8,
			1.0],
			"metallicFactor":1.0,
			"roughnessFactor":0.1
		},
		"emissiveFactor":[0.0,
		0.0,
		0.0],
		"alphaMode":"OPAQUE",
		"doubleSided":false,
		"name":"材质"
	},
	{
		"pbrMetallicRoughness":{
			"baseColorFactor":[0.09999999999999991,
			0.09999999999999991,
			0.09999999999999991,
			1.0],
			"metallicFactor":1.0,
			"roughnessFactor":0.1
		},
		"emissiveFactor":[0.0,
		0.0,
		0.0],
		"alphaMode":"OPAQUE",
		"doubleSided":false,
		"name":"螺絲2"
	}]
}