{
	"asset":{
		"version":"2.0",
		"generator":"Created using the official Cinema 4D glTF Exporter 1.000x284978"
	},
	"scenes":[{
		"nodes":[0,
		1]
	}],
	"nodes":[{
		"name":"摄像机",
		"translation":[9.0,
		12.0,
		9.0],
		"rotation":[0.23911762237548829,
		-0.36964380741119387,
		-0.0990457609295845,
		-0.8923990726470947],
		"scale":[1.0,
		1.0,
		1.0],
		"camera":0
	},
	{
		"name":"3005新樣式_body1",
		"mesh":0
	}],
	"buffers":[{
		"byteLength":72,
		"uri":"data:application/octet-stream;base64,"
	},
	{
		"byteLength":258864,
		"uri":"data:application/octet-stream;base64,"
	}],
	"meshes":[{
		"name":"3005新樣式_body1",
		"primitives":[{
			"attributes":{
				"POSITION":5,
				"NORMAL":6,
				"TEXCOORD_0":7
			},
			"indices":4,
			"material":0
		}]
	}],
	"materials":[{
		"pbrMetallicRoughness":{
			"baseColorFactor":[0.09999999999999997,
			0.09999999999999997,
			0.09999999999999997,
			1.0],
			"metallicFactor":1.0,
			"roughnessFactor":0.1
		},
		"emissiveFactor":[0.0,
		0.0,
		0.0],
		"alphaMode":"OPAQUE",
		"doubleSided":false,
		"name":"材质"
	}],
	"cameras":[{
		"perspective":{
			"znear":0.009999999776482582,
			"zfar":10000000000.0,
			"aspectRatio":1.7777777910232545,
			"yfov":0.5483348965644836
		},
		"type":"perspective"
	}],
	"accessors":[{
		"bufferView":0,
		"type":"SCALAR",
		"componentType":5126,
		"count":2,
		"byteOffset":0,
		"min":[0.0],
		"max":[3.0]
	},
	{
		"bufferView":0,
		"type":"VEC3",
		"componentType":5126,
		"count":2,
		"byteOffset":8,
		"min":[9.0,
		12.0,
		9.0],
		"max":[9.0,
		12.0,
		9.0]
	},
	{
		"bufferView":1,
		"type":"SCALAR",
		"componentType":5126,
		"count":2,
		"byteOffset":0,
		"min":[0.0],
		"max":[3.0]
	},
	{
		"bufferView":1,
		"type":"VEC4",
		"componentType":5126,
		"count":2,
		"byteOffset":8,
		"min":[0.23911762237548829,
		-0.36964380741119387,
		-0.0990457609295845,
		-0.8923990726470947],
		"max":[0.23911762237548829,
		-0.36964380741119387,
		-0.0990457609295845,
		-0.8923990726470947]
	},
	{
		"bufferView":2,
		"type":"SCALAR",
		"componentType":5123,
		"count":30936,
		"byteOffset":0,
		"min":[0],
		"max":[6155]
	},
	{
		"bufferView":3,
		"type":"VEC3",
		"componentType":5126,
		"count":6156,
		"byteOffset":0,
		"min":[-0.9500085115432739,
		-4.5,
		-0.949999988079071],
		"max":[0.9500085115432739,
		19.5,
		0.949999988079071]
	},
	{
		"bufferView":3,
		"type":"VEC3",
		"componentType":5126,
		"count":6156,
		"byteOffset":12,
		"min":[-1.0,
		-1.0,
		-1.0],
		"max":[1.0,
		1.0,
		1.0]
	},
	{
		"bufferView":3,
		"type":"VEC2",
		"componentType":5126,
		"count":6156,
		"byteOffset":24,
		"min":[-2.0816681711721686e-17,
		0.0],
		"max":[1.0,
		1.0]
	}],
	"bufferViews":[{
		"buffer":0,
		"byteOffset":0,
		"byteLength":32
	},
	{
		"buffer":0,
		"byteOffset":32,
		"byteLength":40
	},
	{
		"buffer":1,
		"byteOffset":0,
		"byteLength":61872,
		"target":34963
	},
	{
		"buffer":1,
		"byteOffset":61872,
		"byteLength":196992,
		"target":34962,
		"byteStride":32
	}],
	"animations":[{
		"samplers":[{
			"input":0,
			"interpolation":"LINEAR",
			"output":1
		},
		{
			"input":2,
			"interpolation":"LINEAR",
			"output":3
		}],
		"channels":[{
			"sampler":0,
			"target":{
				"node":0,
				"path":"translation"
			}
		},
		{
			"sampler":1,
			"target":{
				"node":0,
				"path":"rotation"
			}
		}]
	}]
}